<svg xmlns="http://www.w3.org/2000/svg" xmlns:svg="http://www.w3.org/2000/svg" id="svg4874" width="96" height="96" version="1.1" viewBox="0 0 96 96"><metadata id="metadata4879"/><g id="layer1" transform="translate(67.857146,-78.50504)"><g id="g4845" transform="matrix(0,-1,-1,0,373.50506,516.50504)" style="display:inline"><g id="g4778" transform="matrix(-0.9996045,0,0,1,575.94296,-611.00001)"><g id="g4780" transform="matrix(-1,0,0,1,575.99999,611)" style="display:inline"><rect style="color:#000;display:inline;overflow:visible;visibility:visible;fill:none;stroke:none;stroke-width:4;marker:none;enable-background:accumulate" id="rect4782" width="96.038" height="96" x="-438.002" y="345.362" transform="scale(-1,1)"/><path style="color:#000;display:inline;overflow:visible;visibility:visible;fill:gray;fill-opacity:1;fill-rule:nonzero;stroke:none;stroke-width:3.00059342;marker:none;enable-background:accumulate" id="path4198" d="m 421.99612,401.93458 0,-17.14379 c 0,0 9.50358,4.04713 16.00635,8.57143 -6.50277,4.5243 -16.00635,8.57236 -16.00635,8.57236 z"/><rect style="color:#000;display:inline;overflow:visible;visibility:visible;opacity:1;fill:gray;fill-opacity:1;fill-rule:nonzero;stroke:none;stroke-width:4.00079155;stroke-linecap:butt;stroke-linejoin:miter;stroke-miterlimit:4;stroke-dasharray:none;stroke-dashoffset:0;stroke-opacity:1;marker:none;enable-background:accumulate" id="rect4192" width="10" height="10.004" x="-383.362" y="-411.992" transform="matrix(0,-1,-1,0,0,0)"/><ellipse style="color:#000;display:inline;overflow:visible;visibility:visible;opacity:1;fill:gray;fill-opacity:1;fill-rule:nonzero;stroke:none;stroke-width:4.00079155;stroke-linecap:butt;stroke-linejoin:miter;stroke-miterlimit:4;stroke-dasharray:none;stroke-dashoffset:0;stroke-opacity:1;marker:none;enable-background:accumulate" id="path4194" cx="-408.362" cy="-393.985" rx="6" ry="6.002" transform="matrix(0,-1,-1,0,0,0)"/><ellipse id="ellipse4196" cx="-393.362" cy="-348.967" rx="7" ry="7.003" transform="matrix(0,-1,-1,0,0,0)" style="color:#000;display:inline;overflow:visible;visibility:visible;opacity:1;fill:gray;fill-opacity:1;fill-rule:nonzero;stroke:none;stroke-width:4.00079155;stroke-linecap:butt;stroke-linejoin:miter;stroke-miterlimit:4;stroke-dasharray:none;stroke-dashoffset:0;stroke-opacity:1;marker:none;enable-background:accumulate"/><path style="color:#000;display:inline;overflow:visible;visibility:visible;opacity:1;fill:none;fill-opacity:1;fill-rule:nonzero;stroke:gray;stroke-width:4.00079155;stroke-linecap:butt;stroke-linejoin:miter;stroke-miterlimit:4;stroke-dasharray:none;stroke-dashoffset:0;stroke-opacity:1;marker:none;enable-background:accumulate" id="path4199" d="m 422.99651,393.36222 -70.02769,0"/><path style="color:#000;display:inline;overflow:visible;visibility:visible;opacity:1;fill:none;fill-opacity:1;fill-rule:nonzero;stroke:gray;stroke-width:4.00079155;stroke-linecap:butt;stroke-linejoin:miter;stroke-miterlimit:4;stroke-dasharray:none;stroke-dashoffset:0;stroke-opacity:1;marker:none;enable-background:accumulate" id="path4201" d="m 363.97317,393.36222 c 11.00436,0 12.00475,15 22.0087,15 l 4.00159,0"/><path id="path4203" d="m 376.97833,393.36222 c 11.00436,0 12.00475,-15 22.0087,-15 l 4.00159,0" style="color:#000;display:inline;overflow:visible;visibility:visible;opacity:1;fill:none;fill-opacity:1;fill-rule:nonzero;stroke:gray;stroke-width:4.00079155;stroke-linecap:butt;stroke-linejoin:miter;stroke-miterlimit:4;stroke-dasharray:none;stroke-dashoffset:0;stroke-opacity:1;marker:none;enable-background:accumulate"/></g></g></g></g></svg>