<svg xmlns="http://www.w3.org/2000/svg" xmlns:svg="http://www.w3.org/2000/svg" id="svg4874" width="96" height="96" version="1.1" viewBox="0 0 96 96"><metadata id="metadata4879"/><g id="layer1" transform="translate(67.857146,-78.50504)"><rect id="rect4782" width="96" height="96" x="78.505" y="-28.143" transform="rotate(90)" style="color:#000;display:inline;overflow:visible;visibility:visible;fill:none;stroke:none;stroke-width:4;marker:none;enable-background:accumulate"/><path style="color:#000;display:inline;overflow:visible;visibility:visible;fill:gray;fill-opacity:1;fill-rule:nonzero;stroke:none;stroke-width:3;marker:none;enable-background:accumulate" id="path4193" d="M 91.871094 4 C 45.62034 19.587542 4.0175781 41.701172 4.0175781 41.701172 L 37.521484 58.443359 L 54.273438 91.935547 L 54.306641 91.96875 L 54.337891 92 C 54.337891 92 77.534478 48.179866 91.982422 4.0195312 C 91.977522 4.0147312 91.970441 4.009845 91.957031 4.015625 C 91.951431 4.010025 91.938278 4.0132188 91.929688 4.0117188 C 91.924087 4.0061187 91.904717 4.0117245 91.898438 4.0078125 C 91.893538 4.0030125 91.876184 4.0051 91.871094 4 z M 85.462891 10.537109 C 74.674218 41.379954 60.733202 70.471839 54.359375 83.162109 L 40.503906 55.458984 L 12.880859 41.658203 C 25.443504 35.353803 53.797835 21.81196 85.462891 10.537109 z" transform="translate(-67.857146,78.50504)"/><path style="color:#000;display:inline;overflow:visible;visibility:visible;opacity:1;fill:gray;fill-opacity:1;fill-rule:nonzero;stroke:none;stroke-width:8;stroke-linecap:butt;stroke-linejoin:miter;stroke-miterlimit:4;stroke-dasharray:none;stroke-dashoffset:0;stroke-opacity:1;marker:none;enable-background:accumulate" id="path4211" d="m -29.857146,136.50504 c 0,0 2,2 2,2 7.8,-7.8 29.2,-33.2 37,-41 -7.8,7.8 -33.2,29.2 -41,37 0,0 2,2 2,2 z"/></g></svg>